<svg width="382" height="213" viewBox="0 0 382 213" fill="none" xmlns="http://www.w3.org/2000/svg">
<path d="M154.44 23.8C153.192 23.8 151.736 24.008 150.072 24.424C148.512 24.736 146.952 25.308 145.392 26.14C143.936 26.868 142.636 27.804 141.492 28.948C140.348 29.988 139.62 31.236 139.308 32.692L114.66 133H102.18L79.248 59.992L61.308 133H48.828L17.784 34.564C17.16 32.692 16.224 31.08 14.976 29.728C13.728 28.376 12.324 27.284 10.764 26.452C9.204 25.516 7.592 24.84 5.928 24.424C4.264 24.008 2.756 23.8 1.404 23.8H39.78C38.532 23.8 37.18 24.06 35.724 24.58C34.372 24.996 33.176 25.62 32.136 26.452C31.2 27.18 30.472 28.116 29.952 29.26C29.432 30.404 29.38 31.704 29.796 33.16L58.656 124.732L76.596 51.568L71.136 34.564C70.512 32.692 69.576 31.08 68.328 29.728C67.08 28.376 65.676 27.284 64.116 26.452C62.556 25.516 60.944 24.84 59.28 24.424C57.72 24.008 56.264 23.8 54.912 23.8H93.132C91.884 23.8 90.532 24.06 89.076 24.58C87.724 24.996 86.528 25.62 85.488 26.452C84.552 27.18 83.824 28.116 83.304 29.26C82.888 30.404 82.888 31.704 83.304 33.16L112.164 125.044L134.628 32.536C134.94 31.184 134.784 29.988 134.16 28.948C133.64 27.908 132.808 27.024 131.664 26.296C130.624 25.464 129.376 24.84 127.92 24.424C126.568 24.008 125.268 23.8 124.02 23.8H154.44ZM146.131 133C147.483 133 148.887 132.688 150.343 132.064C151.903 131.336 153.307 130.452 154.555 129.412C155.907 128.268 156.999 127.02 157.831 125.668C158.663 124.316 159.079 122.912 159.079 121.456V27.232H150.967L169.999 16V66.856C172.079 63.32 175.043 60.252 178.891 57.652C182.739 54.948 187.315 53.596 192.619 53.596C194.803 53.596 197.143 53.96 199.639 54.688C202.239 55.416 204.683 56.716 206.971 58.588C209.259 60.46 211.131 63.112 212.587 66.544C214.147 69.872 214.927 74.188 214.927 79.492V121.456C214.927 122.808 215.343 124.212 216.175 125.668C217.111 127.02 218.203 128.268 219.451 129.412C220.803 130.452 222.207 131.336 223.663 132.064C225.223 132.688 226.627 133 227.875 133H191.839C193.087 133 194.439 132.688 195.895 132.064C197.455 131.336 198.859 130.452 200.107 129.412C201.355 128.268 202.395 127.02 203.227 125.668C204.163 124.212 204.631 122.808 204.631 121.456V79.648C204.631 73.2 203.331 68.156 200.731 64.516C198.131 60.876 194.283 59.056 189.187 59.056C184.819 59.056 181.023 60.512 177.799 63.424C174.575 66.232 171.975 69.352 169.999 72.784V121.456C169.999 122.808 170.415 124.212 171.247 125.668C172.183 127.02 173.275 128.268 174.523 129.412C175.875 130.452 177.279 131.336 178.735 132.064C180.295 132.688 181.699 133 182.947 133H146.131ZM264.533 142.048C261.413 151.616 256.681 159.26 250.337 164.98C243.993 170.804 236.921 174.288 229.121 175.432V158.74C230.161 158.948 231.617 159.26 233.489 159.676C235.361 160.092 237.493 160.3 239.885 160.3C241.757 160.3 243.681 160.04 245.657 159.52C247.633 159.104 249.557 158.324 251.429 157.18C253.301 156.036 255.017 154.424 256.577 152.344C258.241 150.264 259.593 147.612 260.633 144.388L264.533 133L234.893 65.452C234.165 63.684 233.125 62.176 231.773 60.928C230.525 59.576 229.173 58.484 227.717 57.652C226.157 56.82 224.597 56.196 223.037 55.78C221.477 55.26 220.021 55 218.669 55H257.045C255.797 55 254.445 55.26 252.989 55.78C251.637 56.196 250.441 56.82 249.401 57.652C248.361 58.484 247.581 59.472 247.061 60.616C246.541 61.76 246.541 63.06 247.061 64.516L268.277 120.52L285.593 63.736C286.009 62.488 285.905 61.344 285.281 60.304C284.657 59.16 283.773 58.224 282.629 57.496C281.589 56.664 280.341 56.04 278.885 55.624C277.533 55.208 276.233 55 274.985 55H305.405C304.157 55 302.753 55.208 301.193 55.624C299.633 56.04 298.125 56.664 296.669 57.496C295.213 58.224 293.913 59.16 292.769 60.304C291.625 61.344 290.793 62.592 290.273 64.048L264.533 142.048Z" fill="#FCF8F2"/>
<path d="M376.748 70.256C376.332 74.728 374.928 78.836 372.536 82.58C370.144 86.22 367.44 89.392 364.424 92.096C361.408 94.8 358.444 97.088 355.532 98.96C352.724 100.832 350.592 102.236 349.136 103.172L347.888 134.996H344.456L343.988 102.548C347.94 99.948 351.06 97.4 353.348 94.904C355.74 92.304 357.56 89.704 358.808 87.104C360.056 84.4 360.836 81.696 361.148 78.992C361.564 76.288 361.824 73.532 361.928 70.724C362.136 63.444 360.576 57.568 357.248 53.096C353.92 48.52 348.72 46.284 341.648 46.388C338.424 46.388 335.616 47.168 333.224 48.728C330.832 50.184 328.856 51.9 327.296 53.876C325.736 55.852 324.592 57.828 323.864 59.804C323.136 61.78 322.772 63.34 322.772 64.484C325.164 63.236 327.296 62.612 329.168 62.612C332.288 62.612 334.524 64.12 335.876 67.136C336.5 68.488 336.708 69.892 336.5 71.348C336.292 72.7 335.772 73.896 334.94 74.936C334.212 75.976 333.224 76.808 331.976 77.432C330.728 78.056 329.376 78.316 327.92 78.212C324.904 77.9 322.824 76.444 321.68 73.844C320.536 71.14 320.068 68.384 320.276 65.576C320.38 62.976 320.952 60.376 321.992 57.776C323.032 55.176 324.54 52.836 326.516 50.756C328.596 48.572 331.092 46.752 334.004 45.296C336.916 43.736 340.296 42.696 344.144 42.176C350.28 41.344 355.48 41.708 359.744 43.268C364.112 44.724 367.596 46.908 370.196 49.82C372.796 52.628 374.616 55.904 375.656 59.648C376.696 63.288 377.06 66.824 376.748 70.256ZM352.1 147.164C352.1 149.036 351.528 150.544 350.384 151.688C349.24 152.832 347.732 153.404 345.86 153.404C343.988 153.404 342.48 152.832 341.336 151.688C340.192 150.544 339.62 149.036 339.62 147.164C339.62 145.292 340.192 143.784 341.336 142.64C342.48 141.496 343.988 140.924 345.86 140.924C347.732 140.924 349.24 141.496 350.384 142.64C351.528 143.784 352.1 145.292 352.1 147.164Z" fill="#FCF8F2"/>
<path d="M61.55 204.194C60.4287 204.31 59.52 204.175 58.824 203.788C58.1667 203.44 57.548 203.015 56.968 202.512C56.4267 202.009 55.866 201.487 55.286 200.946C54.706 200.405 53.952 200.018 53.024 199.786C52.4053 199.631 51.7287 199.554 50.994 199.554C49.138 199.554 47.4367 200.018 45.89 200.946C44.3433 201.874 43.1253 202.879 42.236 203.962H39.684L54.068 193.232C53.6427 193.309 53.198 193.367 52.734 193.406C52.27 193.445 51.806 193.464 51.342 193.464C48.8287 193.464 46.528 192.961 44.44 191.956C42.3907 190.951 40.6313 189.539 39.162 187.722C37.6927 185.866 36.552 183.662 35.74 181.11C34.928 178.558 34.522 175.716 34.522 172.584C34.522 169.452 34.928 166.61 35.74 164.058C36.552 161.467 37.6927 159.263 39.162 157.446C40.6313 155.59 42.3907 154.159 44.44 153.154C46.528 152.149 48.8287 151.646 51.342 151.646C53.8553 151.646 56.1367 152.149 58.186 153.154C60.274 154.159 62.0527 155.59 63.522 157.446C64.9913 159.263 66.132 161.467 66.944 164.058C67.756 166.61 68.162 169.452 68.162 172.584C68.162 174.401 67.988 176.238 67.64 178.094C67.3307 179.95 66.8087 181.729 66.074 183.43C65.378 185.093 64.4307 186.639 63.232 188.07C62.072 189.501 60.6413 190.68 58.94 191.608C58.708 191.724 58.2053 192.033 57.432 192.536C56.6587 193 55.75 193.561 54.706 194.218C53.662 194.914 52.5407 195.649 51.342 196.422C50.1433 197.195 49.0027 197.93 47.92 198.626H48.152C48.5773 198.394 49.08 198.104 49.66 197.756C50.2787 197.408 50.936 197.079 51.632 196.77C52.328 196.499 53.0627 196.287 53.836 196.132C54.6093 195.977 55.402 195.977 56.214 196.132C57.2967 196.325 58.1473 196.693 58.766 197.234C59.3847 197.814 59.9453 198.394 60.448 198.974C60.9507 199.554 61.4533 200.057 61.956 200.482C62.4587 200.946 63.116 201.159 63.928 201.12C64.4307 201.081 65.0107 200.946 65.668 200.714C66.3253 200.482 67.06 199.96 67.872 199.148C67.5627 199.651 67.1953 200.173 66.77 200.714C66.3833 201.294 65.9193 201.835 65.378 202.338C64.8753 202.841 64.2953 203.266 63.638 203.614C63.0193 203.962 62.3233 204.155 61.55 204.194ZM39.162 172.584C39.162 174.827 39.452 177.108 40.032 179.428C40.6507 181.748 41.482 183.875 42.526 185.808C43.6087 187.703 44.904 189.269 46.412 190.506C47.92 191.705 49.5633 192.304 51.342 192.304C53.1593 192.304 54.8027 191.705 56.272 190.506C57.7413 189.269 58.998 187.703 60.042 185.808C61.1247 183.875 61.956 181.748 62.536 179.428C63.116 177.108 63.406 174.827 63.406 172.584C63.406 170.341 63.116 168.06 62.536 165.74C61.956 163.381 61.144 161.255 60.1 159.36C59.056 157.427 57.78 155.861 56.272 154.662C54.8027 153.425 53.1593 152.806 51.342 152.806C49.5633 152.806 47.92 153.425 46.412 154.662C44.904 155.861 43.6087 157.427 42.526 159.36C41.482 161.255 40.6507 163.381 40.032 165.74C39.452 168.06 39.162 170.341 39.162 172.584ZM90.0538 187.49C89.7058 188.225 89.2418 188.959 88.6618 189.694C88.1205 190.39 87.4632 191.028 86.6898 191.608C85.9552 192.149 85.1238 192.594 84.1958 192.942C83.2678 193.29 82.2432 193.464 81.1218 193.464C80.3098 193.464 79.4205 193.329 78.4538 193.058C77.4872 192.787 76.5785 192.304 75.7278 191.608C74.9158 190.912 74.2198 189.945 73.6398 188.708C73.0598 187.432 72.7698 185.808 72.7698 183.836V168.176H69.7538L76.8298 164V183.778C76.8298 186.175 77.2745 188.051 78.1638 189.404C79.0918 190.757 80.5032 191.434 82.3978 191.434C83.2872 191.434 84.1185 191.241 84.8918 190.854C85.7038 190.467 86.4385 189.984 87.0958 189.404C87.7532 188.785 88.3332 188.109 88.8358 187.374C89.3385 186.639 89.7445 185.924 90.0538 185.228V168.176H87.0378L94.1138 164V188.708C94.1138 189.211 94.2685 189.733 94.5778 190.274C94.9258 190.777 95.3318 191.241 95.7958 191.666C96.2985 192.053 96.8205 192.381 97.3618 192.652C97.9418 192.884 98.4638 193 98.9278 193H90.0538V187.49ZM123.009 178.5C123.009 180.743 122.719 182.792 122.139 184.648C121.559 186.465 120.727 188.031 119.645 189.346C118.562 190.661 117.247 191.685 115.701 192.42C114.193 193.116 112.511 193.464 110.655 193.464C108.799 193.464 107.097 193.116 105.551 192.42C104.043 191.685 102.747 190.661 101.665 189.346C100.582 188.031 99.7314 186.465 99.1127 184.648C98.5327 182.792 98.2427 180.743 98.2427 178.5C98.2427 176.257 98.5327 174.208 99.1127 172.352C99.7314 170.496 100.582 168.911 101.665 167.596C102.747 166.281 104.043 165.276 105.551 164.58C107.097 163.845 108.799 163.478 110.655 163.478C112.511 163.478 114.193 163.845 115.701 164.58C117.247 165.276 118.562 166.281 119.645 167.596C120.727 168.911 121.559 170.496 122.139 172.352C122.719 174.208 123.009 176.257 123.009 178.5ZM102.303 178.5C102.303 180.124 102.477 181.767 102.825 183.43C103.211 185.093 103.753 186.601 104.449 187.954C105.183 189.307 106.073 190.429 107.117 191.318C108.161 192.169 109.34 192.594 110.655 192.594C112.008 192.594 113.187 192.169 114.193 191.318C115.237 190.429 116.107 189.307 116.803 187.954C117.499 186.601 118.021 185.093 118.369 183.43C118.755 181.767 118.949 180.124 118.949 178.5C118.949 176.876 118.755 175.233 118.369 173.57C118.021 171.907 117.499 170.399 116.803 169.046C116.107 167.654 115.237 166.533 114.193 165.682C113.187 164.793 112.008 164.348 110.655 164.348C109.34 164.348 108.161 164.793 107.117 165.682C106.073 166.533 105.183 167.654 104.449 169.046C103.753 170.399 103.211 171.907 102.825 173.57C102.477 175.233 102.303 176.876 102.303 178.5ZM148.431 191.666C147.657 192.014 146.575 192.401 145.183 192.826C143.791 193.251 142.36 193.464 140.891 193.464C138.377 193.464 136.077 192.961 133.989 191.956C131.939 190.951 130.18 189.539 128.711 187.722C127.241 185.866 126.101 183.662 125.289 181.11C124.477 178.558 124.071 175.716 124.071 172.584C124.071 169.452 124.477 166.61 125.289 164.058C126.101 161.467 127.241 159.263 128.711 157.446C130.18 155.59 131.939 154.159 133.989 153.154C136.077 152.149 138.377 151.646 140.891 151.646C141.703 151.646 142.592 151.723 143.559 151.878C144.525 152.033 145.492 152.265 146.459 152.574C147.464 152.845 148.45 153.154 149.417 153.502C150.383 153.85 151.273 154.237 152.085 154.662L150.345 160.694C149.262 158.413 147.928 156.537 146.343 155.068C144.757 153.56 142.94 152.806 140.891 152.806C139.112 152.806 137.469 153.425 135.961 154.662C134.453 155.861 133.157 157.427 132.075 159.36C131.031 161.255 130.199 163.381 129.581 165.74C129.001 168.06 128.711 170.341 128.711 172.584C128.711 174.827 129.001 177.108 129.581 179.428C130.199 181.748 131.031 183.875 132.075 185.808C133.157 187.703 134.453 189.269 135.961 190.506C137.469 191.705 139.112 192.304 140.891 192.304C141.819 192.304 142.785 192.091 143.791 191.666C144.835 191.241 145.782 190.68 146.633 189.984C147.522 189.249 148.237 188.399 148.779 187.432C149.359 186.465 149.649 185.46 149.649 184.416L149.823 173.918C147.967 173.918 146.401 174.053 145.125 174.324C143.849 174.595 142.805 174.962 141.993 175.426C141.219 175.851 140.639 176.315 140.253 176.818C139.905 177.321 139.731 177.804 139.731 178.268V172.816H154.405C154.25 173.203 154.115 173.841 153.999 174.73C153.883 175.619 153.786 176.625 153.709 177.746C153.631 178.867 153.573 180.047 153.535 181.284C153.496 182.521 153.477 183.681 153.477 184.764C153.477 185.847 153.496 186.813 153.535 187.664C153.573 188.515 153.651 189.114 153.767 189.462C152.955 189.578 152.181 189.829 151.447 190.216C150.712 190.564 149.707 191.047 148.431 191.666ZM180.629 186.678C180.088 187.606 179.489 188.495 178.831 189.346C178.174 190.158 177.42 190.873 176.569 191.492C175.757 192.111 174.829 192.594 173.785 192.942C172.741 193.29 171.543 193.464 170.189 193.464C168.295 193.464 166.555 193.116 164.969 192.42C163.423 191.685 162.089 190.661 160.967 189.346C159.885 188.031 159.034 186.465 158.415 184.648C157.835 182.792 157.545 180.743 157.545 178.5C157.545 176.257 157.835 174.208 158.415 172.352C159.034 170.496 159.885 168.911 160.967 167.596C162.05 166.281 163.345 165.276 164.853 164.58C166.4 163.845 168.101 163.478 169.957 163.478C171.813 163.478 173.476 163.845 174.945 164.58C176.415 165.276 177.652 166.281 178.657 167.596C179.701 168.911 180.475 170.496 180.977 172.352C181.519 174.208 181.789 176.257 181.789 178.5H161.605C161.605 180.124 161.779 181.729 162.127 183.314C162.475 184.899 163.036 186.33 163.809 187.606C164.583 188.843 165.569 189.868 166.767 190.68C168.005 191.453 169.513 191.84 171.291 191.84C173.263 191.84 174.984 191.376 176.453 190.448C177.961 189.481 179.276 188.205 180.397 186.62L180.629 186.678ZM169.957 164.348C168.72 164.348 167.599 164.735 166.593 165.508C165.627 166.281 164.795 167.287 164.099 168.524C163.403 169.723 162.843 171.095 162.417 172.642C161.992 174.15 161.741 175.658 161.663 177.166H178.251C178.213 175.619 178 174.092 177.613 172.584C177.265 171.037 176.724 169.665 175.989 168.466C175.293 167.229 174.443 166.243 173.437 165.508C172.432 164.735 171.272 164.348 169.957 164.348ZM182.977 193C183.48 193 184.002 192.884 184.543 192.652C185.123 192.381 185.645 192.053 186.109 191.666C186.612 191.241 187.018 190.777 187.327 190.274C187.636 189.771 187.791 189.249 187.791 188.708V168.176H184.775L191.851 164V168.408C192.624 167.093 193.726 165.953 195.157 164.986C196.588 163.981 198.289 163.478 200.261 163.478C201.073 163.478 201.962 163.613 202.929 163.884C203.934 164.155 204.862 164.638 205.713 165.334C206.602 166.03 207.337 167.016 207.917 168.292C208.497 169.529 208.787 171.134 208.787 173.106V188.708C208.787 189.211 208.942 189.733 209.251 190.274C209.599 190.777 210.005 191.241 210.469 191.666C210.972 192.053 211.494 192.381 212.035 192.652C212.615 192.884 213.137 193 213.601 193H199.971C200.435 193 200.938 192.884 201.479 192.652C202.059 192.381 202.581 192.053 203.045 191.666C203.509 191.241 203.896 190.777 204.205 190.274C204.553 189.733 204.727 189.211 204.727 188.708V173.164C204.727 170.767 204.244 168.891 203.277 167.538C202.31 166.185 200.88 165.508 198.985 165.508C197.361 165.508 195.95 166.049 194.751 167.132C193.552 168.176 192.586 169.336 191.851 170.612V188.708C191.851 189.211 192.006 189.733 192.315 190.274C192.663 190.777 193.069 191.241 193.533 191.666C194.036 192.053 194.558 192.381 195.099 192.652C195.679 192.884 196.201 193 196.665 193H182.977Z" fill="#FCF8F2"/>
</svg>
