<svg width="56" height="27" viewBox="0 0 56 27" fill="none" xmlns="http://www.w3.org/2000/svg">
<path d="M13.42 26.42C9.85 26.42 6.81667 25.1833 4.32 22.71C1.82333 20.2133 0.575 17.1683 0.575 13.575C0.575 9.98167 1.82333 6.94833 4.32 4.475C6.81667 1.97833 9.85 0.729998 13.42 0.729998C17.0133 0.729998 20.0467 1.97833 22.52 4.475C25.0167 6.94833 26.265 9.98167 26.265 13.575C26.265 16.6317 25.32 19.35 23.43 21.73L28.05 26H23.605L21.225 23.83C18.985 25.5567 16.3833 26.42 13.42 26.42ZM13.42 23.34C15.52 23.34 17.3517 22.78 18.915 21.66L14.96 17.985L16.955 15.745L21.05 19.56C22.3567 17.81 23.01 15.815 23.01 13.575C23.01 10.845 22.0883 8.535 20.245 6.645C18.425 4.755 16.15 3.81 13.42 3.81C10.7133 3.81 8.43833 4.755 6.595 6.645C4.775 8.535 3.865 10.845 3.865 13.575C3.865 16.305 4.775 18.615 6.595 20.505C8.43833 22.395 10.7133 23.34 13.42 23.34ZM42.7478 26.42C39.0845 26.42 36.0161 25.195 33.5428 22.745C31.0928 20.2717 29.8678 17.215 29.8678 13.575C29.8678 9.935 31.0928 6.89 33.5428 4.44C36.0161 1.96666 39.0845 0.729998 42.7478 0.729998C45.5478 0.729998 48.0211 1.48833 50.1678 3.005C52.3145 4.49833 53.7611 6.33 54.5078 8.5H50.9028C50.2028 7.1 49.1295 5.96833 47.6828 5.105C46.2361 4.24167 44.5911 3.81 42.7478 3.81C39.9945 3.81 37.6961 4.755 35.8528 6.645C34.0328 8.51167 33.1228 10.8217 33.1228 13.575C33.1228 16.3283 34.0328 18.65 35.8528 20.54C37.6961 22.4067 39.9945 23.34 42.7478 23.34C45.2911 23.34 47.3795 22.5467 49.0128 20.96C50.6695 19.3733 51.6145 17.3317 51.8478 14.835H42.6078V11.79H55.2078C55.5345 16.1767 54.4845 19.7117 52.0578 22.395C49.6311 25.0783 46.5278 26.42 42.7478 26.42Z" fill="#FCF8F2"/>
</svg>
